# AST/ASF file generated using VICON BodyLanguage
# -----------------------------------------------
:version 1.10
:name VICON
:units
  mass 1.0
  length 0.45
  angle deg
:documentation
   .ast/.asf automatically generated from VICON data using
   VICON BodyBuilder and BodyLanguage model FoxedUp or BRILLIANT.MOD
:root
   order TX TY TZ RX RY RZ
   axis XYZ
   position 0 0 0  
   orientation 0 0 0 
:bonedata
  begin
     id 1 
     name lhipjoint
     direction 0.630305 -0.712092 0.309259 
     length 2.29033 
     axis 0 0 0  XYZ
  end
  begin
     id 2 
     name lfemur
     direction 0.34202 -0.939693 0  
     length 6.43538  
     axis 0 0 20  XYZ
    dof rx ry rz
    limits (-160.0 20.0)
           (-70.0 70.0)
           (-60.0 70.0)
  end
  begin
     id 3 
     name ltibia
     direction 0.34202 -0.939693 0   
     length 7.43097   
     axis 0 0 20   XYZ
    dof rx
    limits (-10.0 170.0)
  end
  begin
     id 4 
     name lfoot
     direction 0.0334653 -0.0919451 0.995202   
     length 1.78438   
     axis -90 7.62852e-016 20   XYZ
    dof rx rz
    limits (-45.0 90.0)
           (-70.0 20.0)
  end
  begin
     id 5 
     name ltoes
     direction 1.53535e-011 -4.21933e-011 1   
     length 0.90832   
     axis -90 7.62852e-016 20   XYZ
    dof rx
    limits (-90.0 20.0)
  end
  begin
     id 6 
     name rhipjoint
     direction -0.682059 -0.67077 0.291312   
     length 2.43143  
     axis 0 0 0  XYZ 
  end
  begin
     id 7 
     name rfemur
     direction -0.34202 -0.939693 0   
     length 6.63488   
     axis 0 0 -20   XYZ
    dof rx ry rz
    limits (-160.0 20.0)
           (-70.0 70.0)
           (-70.0 60.0)
  end
  begin
     id 8 
     name rtibia
     direction -0.34202 -0.939693 0   
     length 6.86532   
     axis 0 0 -20   XYZ
    dof rx
    limits (-10.0 170.0)
 end
 begin
     id 9 
     name rfoot
     direction -0.105199 -0.289033 0.951521   
     length 1.77126  
     axis -90 -7.62852e-016 -20   XYZ
    dof rx rz
    limits (-45.0 90.0)
           (-20.0 70.0)
  end
  begin
     id 10 
     name rtoes
     direction -1.53551e-011 -4.21978e-011 1   
     length 0.889273   
     axis -90 -7.62852e-016 -20   XYZ
    dof rx
    limits (-90.0 20.0)
  end
  begin
     id 11 
     name lowerback
     direction -0.0514305 0.998089 0.034245   
     length 2.02077   
     axis 0 0 0   XYZ
    dof rx ry rz
    limits (-20.0 45.0)
           (-30.0 30.0)
           (-30.0 30.0)
  end
  begin
     id 12 
     name upperback
     direction 0.0203189 0.999449 -0.0262315   
     length 2.01413   
     axis 0 0 0   XYZ
    dof rx ry rz
    limits (-20.0 45.0)
           (-30.0 30.0)
           (-30.0 30.0)
  end
  begin
     id 13 
     name thorax
     direction 0.0452736 0.998142 -0.0407729   
     length 2.02986   
     axis 0 0 0   XYZ
    dof rx ry rz
    limits (-20.0 45.0)
           (-30.0 30.0)
           (-30.0 30.0)
  end
  begin
     id 14 
     name lowerneck
     direction -0.0180464 0.999645 -0.0195774   
     length 1.59034   
     axis 0 0 0   XYZ
    dof rx ry rz
    limits (-20.0 45.0)
           (-30.0 30.0)
           (-30.0 30.0)
  end
  begin
     id 15 
     name upperneck
     direction 0.0732272 0.979935 -0.18538   
     length 1.57486   
     axis 0 0 0   XYZ
    dof rx ry rz
    limits (-20.0 45.0)
           (-30.0 30.0)
           (-30.0 30.0)
  end
  begin
     id 16
     name head
     direction 0.0252963 0.997909 -0.059472  
     length 1.60334  
     axis 0 0 0   XYZ
    dof rx ry rz
    limits (-20.0 45.0)
           (-30.0 30.0)
           (-30.0 30.0)
  end
  begin
     id 17 
     name lclavicle
     direction 0.943819 0.330449 0.00315172  
     length 3.50322  
     axis 0 0 0   XYZ
    dof ry rz
    limits (-20.0 10.0)
           (0.0 20.0)
  end
  begin
     id 18 
     name lhumerus
     direction 1 -4.48949e-011 2.22502e-028   
     length 4.63208   
     axis 180 -30 -90   XYZ
    dof rx ry rz
    limits (-60.0 90.0)
           (-90.0 90.0)
           (-90.0 90.0)
  end
  begin
     id 19
     name lradius
     direction 1 -4.48967e-011 -4.10197e-027   
     length 3.41924   
     axis 180 -30 -90   XYZ
    dof rx
    limits (-10.0 170.0)
  end
  begin
     id 20
     name lwrist
     direction 1 -4.48987e-011 -1.24264e-027   
     length 1.70962   
     axis 2.50585e-015 90 90   XYZ
    dof ry
    limits (-180.0 0.0)
 end
  begin
     id 21 
     name lhand
     direction 1 -4.48983e-011 -2.48528e-027   
     length 0.62537   
     axis 1.58582e-015 90 90   XYZ
    dof rx rz
    limits (-90.0 90.0)
           (-45.0 45.0)
  end
  begin
     id 22 
     name lfingers
     direction 1 -4.48896e-011 -4.97056e-027   
     length 0.50419   
     axis 3.17164e-015 90 90   XYZ
    dof rx
    limits (0.0 90.0)
  end
  begin
     id 23
     name lthumb
     direction 0.707107 -6.34803e-011 0.707107   
     length 0.723919   
     axis -90 45 2.85299e-015   XYZ
    dof rx rz
    limits (-45.0 45.0)
           (-45.0 45.0)
  end
  begin
     id 24 
     name rclavicle
     direction -0.964499 0.260664 -0.0423695   
     length 3.91997  
     axis 0 0 0   XYZ 
    dof ry rz
    limits (-10.0 20.0)
           (-20.0 0.0)
  end
  begin
     id 25 
     name rhumerus
     direction -1 -4.48957e-011 -1.98656e-027  
     length 4.4064   
     axis 180 30 90   XYZ
    dof rx ry rz
    limits (-90.0 60.0)
           (-90.0 90.0)
           (-90.0 90.0)
  end
  begin
     id 26 
     name rradius
     direction -1 -4.48968e-011 1.96972e-027   
     length 3.44675   
     axis 180 30 90   XYZ
    dof rx
    limits (-10.0 170.0)
  end
  begin
     id 27 
     name rwrist
     direction -1 -4.48974e-011 -1.24264e-027   
     length 1.72338   
     axis 2.50585e-015 -90 -90   XYZ
    dof ry
    limits (-180.0 0.0)
  end
  begin
     id 28
     name rhand
     direction -1 -4.48901e-011 -2.48528e-027   
     length 0.513674   
     axis 1.58582e-015 -90 -90   XYZ
    dof rx rz
    limits (-90.0 90.0)
           (-45.0 45.0)
  end
  begin
     id 29
     name rfingers
     direction -1 -4.48946e-011 -4.97056e-027   
     length 0.414137   
     axis 3.17164e-015 -90 -90   XYZ
    dof rx
    limits (0.0 90.0)
  end
  begin
     id 30
     name rthumb
     direction -0.707107 -6.34859e-011 0.707107   
     length 0.59462   
     axis -90 -45 -2.85299e-015   XYZ
    dof rx rz
    limits (-45.0 45.0)
           (-45.0 45.0)
  end
:hierarchy
  begin
    root lhipjoint rhipjoint lowerback
    lhipjoint lfemur
    lfemur ltibia
    ltibia lfoot
    lfoot ltoes
    rhipjoint rfemur
    rfemur rtibia
    rtibia rfoot
    rfoot rtoes
    lowerback upperback
    upperback thorax
    thorax lowerneck lclavicle rclavicle
    lowerneck upperneck
    upperneck head
    lclavicle lhumerus
    lhumerus lradius
    lradius lwrist
    lwrist lhand lthumb
    lhand lfingers
    rclavicle rhumerus
    rhumerus rradius
    rradius rwrist
    rwrist rhand rthumb
    rhand rfingers
  end

#!OML:ASF E:\inclinewalkrobotboard\Project 1\Capture day 1\Session 1\subject1.ASF
:FULLY-SPECIFIED
:DEGREES
205
root 10.9153 15.9134 10.583 17.4204 -75.6705 7.81337
lowerback 10.29 0.411003 -11.522
upperback 3.36372 -0.711471 -0.0432589
thorax -2.07889 -0.422282 6.5358
lowerneck -0.690227 1.38673 -1.69527
upperneck -13.8396 1.76474 1.44155
head -4.46986 0.790796 0.727331
rclavicle -3.18055e-014 -8.74653e-015
rhumerus -51.1968 -43.361 -39.9169
rradius 79.4315
rwrist -41.0582
rhand -13.1182 -25.486
rfingers 7.12502
rthumb 12.9793 -55.0623
lclavicle -3.18055e-014 -8.74653e-015
lhumerus -21.9787 -49.182 108.247
lradius 100.019
lwrist -9.34661
lhand -55.215 -35.9244
lfingers 7.12502
lthumb -27.5858 -7.9262
rfemur -11.0127 10.4781 -13.6422
rtibia 6.919
rfoot -1.06298 -39.2196
rtoes 13.2161
lfemur -49.1966 2.87563 -11.531
ltibia 34.4436
lfoot -12.355 11.2514
ltoes -68.4427
206
root 10.9167 15.9291 10.5461 17.9041 -76.3701 7.1814
lowerback 10.1501 0.962195 -11.651
upperback 3.40741 0.0164908 -0.149521
thorax -2.09791 -0.0642221 6.40808
lowerneck -0.336028 2.93289 -1.24867
upperneck -14.3336 3.70966 -0.124631
head -4.71012 1.80902 0.0375226
rclavicle -5.56597e-015 -8.34896e-015
rhumerus -51.8681 -43.4502 -39.7278
rradius 79.7916
rwrist -40.9507
rhand -13.0569 -25.4727
rfingers 7.12502
rthumb 13.0384 -55.0452
lclavicle -5.56597e-015 -8.34896e-015
lhumerus -22.1722 -49.6778 108.577
lradius 99.9708
lwrist -9.11753
lhand -55.1213 -35.8725
lfingers 7.12502
lthumb -27.4962 -7.85993
rfemur -11.5489 10.8584 -13.523
rtibia 7.1714
rfoot -0.519132 -39.0309
rtoes 12.1932
lfemur -48.5488 3.54935 -11.2884
ltibia 33.8414
lfoot -12.2129 11.4791
ltoes -68.4631
207
root 10.9174 15.9409 10.5195 17.6804 -76.4681 7.35662
lowerback 10.0395 1.25971 -11.6877
upperback 3.40213 0.417194 -0.211664
thorax -2.12077 0.135544 6.31393
lowerneck -0.145216 4.47345 -0.905464
upperneck -14.5705 5.63565 -1.76493
head -4.78211 2.83173 -0.662712
rclavicle 1.03368e-014 3.18055e-015
rhumerus -52.3513 -43.5345 -39.5336
rradius 79.9565
rwrist -40.5998
rhand -12.9993 -25.376
rfingers 7.12502
rthumb 13.0938 -54.9449
lclavicle 1.03368e-014 3.18055e-015
lhumerus -22.4538 -50.0264 109.106
lradius 99.8698
lwrist -8.90216
lhand -54.8783 -36.2333
lfingers 7.12502
lthumb -27.2638 -8.1841
rfemur -11.5564 10.9353 -13.4947
rtibia 7.0898
rfoot -0.906067 -39.1211
rtoes 12.7029
lfemur -48.1369 3.36901 -11.1003
ltibia 33.2562
lfoot -12.089 11.8195
ltoes -68.4564
208
root 10.9189 15.9522 10.4966 17.099 -76.3231 7.87812
lowerback 10.0604 1.44503 -11.7272
upperback 3.35185 0.650523 -0.256869
thorax -2.2311 0.259745 6.2591
lowerneck 0.00861239 5.91846 -0.745147
upperneck -14.6751 7.45129 -3.19439
head -4.77446 3.80132 -1.2513
rclavicle 1.47101e-014 2.90226e-014
rhumerus -52.7482 -43.6812 -39.3549
rradius 79.9156
rwrist -39.9665
rhand -13.043 -25.1895
rfingers 7.12502
rthumb 13.0517 -54.7611
lclavicle 1.47101e-014 2.90226e-014
lhumerus -22.7738 -50.2143 109.712
lradius 99.7584
lwrist -8.69241
lhand -54.6039 -36.3939
lfingers 7.12502
lthumb -27.0012 -8.30373
rfemur -11.3433 10.7482 -13.4801
rtibia 6.94356
rfoot -1.29847 -39.196
rtoes 13.7856
lfemur -47.8131 2.97653 -11.0071
ltibia 32.734
lfoot -11.8943 12.0231
ltoes -68.4731
209
root 10.9201 15.9662 10.471 17.1956 -76.2559 7.68339
lowerback 10.0748 1.66749 -11.5489
upperback 3.31963 0.952473 -0.383391
thorax -2.32924 0.416186 5.98531
lowerneck -0.0143024 7.17275 -0.00349023
upperneck -14.5873 9.00352 -4.91775
head -4.58857 4.62338 -2.0016
rclavicle 2.66371e-014 4.81059e-014
rhumerus -53.3734 -43.9086 -39.273
rradius 79.9787
rwrist -39.4234
rhand -12.9754 -25.0924
rfingers 7.12502
rthumb 13.1169 -54.6598
lclavicle 2.66371e-014 4.81059e-014
lhumerus -23.1101 -50.5783 110.173
lradius 99.6685
lwrist -8.51844
lhand -54.5188 -36.0346
lfingers 7.12502
lthumb -26.9198 -7.9318
rfemur -11.2314 10.4858 -13.2538
rtibia 6.88259
rfoot -0.892664 -39.1259
rtoes 13.013
lfemur -47.4974 3.01823 -10.8642
ltibia 32.2914
lfoot -11.5952 11.9016
ltoes -68.5058
210
root 10.921 15.9798 10.4454 17.3972 -76.2184 7.43617
lowerback 10.0061 1.90588 -11.3465
upperback 3.29555 1.28773 -0.556026
thorax -2.3742 0.58544 5.64517
lowerneck 0.0405922 8.20867 0.363394
upperneck -14.6518 10.3095 -6.04627
head -4.50021 5.31382 -2.48271
rclavicle -5.88403e-014 1.82882e-014
rhumerus -54.1173 -44.1146 -39.2221
rradius 80.1901
rwrist -39.2083
rhand -12.841 -25.1955
rfingers 7.12502
rthumb 13.2465 -54.7546
lclavicle -5.88403e-014 1.82882e-014
lhumerus -23.4132 -51.1423 110.516
lradius 99.6056
lwrist -8.33832
lhand -54.5113 -35.5719
lfingers 7.12502
lthumb -26.9126 -7.46799
rfemur -11.1671 10.1821 -13.0524
rtibia 6.81144
rfoot -0.853925 -39.0088
rtoes 12.9227
lfemur -47.2261 3.03774 -10.6825
ltibia 31.8395
lfoot -11.3818 11.9138
ltoes -68.5283
211
root 10.9211 15.991 10.4224 17.0969 -76.1972 7.68637
lowerback 9.94603 2.12439 -11.3404
upperback 3.27359 1.57514 -0.737454
thorax -2.41191 0.72977 5.41223
lowerneck 0.239782 9.19342 0.490927
upperneck -14.9159 11.5739 -6.78884
head -4.5341 5.97913 -2.81074
rclavicle 1.07344e-014 -2.94201e-014
rhumerus -54.7642 -44.2707 -39.2161
rradius 80.3944
rwrist -38.9997
rhand -12.5094 -25.4495
rfingers 7.12502
rthumb 13.5661 -54.9875
lclavicle 1.07344e-014 -2.94201e-014
lhumerus -23.6229 -51.6349 110.759
lradius 99.569
lwrist -8.11033
lhand -54.5253 -35.289
lfingers 7.12502
lthumb -26.926 -7.18722
rfemur -11.0494 10.1069 -13.0164
rtibia 6.71869
rfoot -2.05784 -39.0346
rtoes 15.8577
lfemur -46.8752 2.74977 -10.53
ltibia 31.3112
lfoot -11.2804 12.2799
ltoes -68.5444
212
root 10.9188 16.0019 10.4004 17.0743 -76.1997 7.60851
lowerback 9.89929 2.31539 -11.328
upperback 3.2487 1.82615 -0.888922
thorax -2.45238 0.856338 5.21204
lowerneck 0.221213 10.0234 0.829037
upperneck -14.8884 12.6328 -7.6577
head -4.39094 6.53509 -3.17139
rclavicle -4.96962e-015 -7.15625e-015
rhumerus -55.2118 -44.3277 -39.2903
rradius 80.4374
rwrist -38.717
rhand -12.1562 -25.6174
rfingers 7.12502
rthumb 13.9064 -55.1324
lclavicle -4.96962e-015 -7.15625e-015
lhumerus -23.8186 -51.9017 111.05
lradius 99.4669
lwrist -7.97763
lhand -54.6042 -35.2605
lfingers 7.12502
lthumb -27.0015 -7.17031
rfemur -10.9415 10.3807 -12.8669
rtibia 6.67707
rfoot -3.62326 -39.2072
rtoes 19.255
lfemur -46.468 2.52511 -10.3055
ltibia 30.8041
lfoot -11.1484 12.6264
ltoes -68.5771
213
root 10.9152 16.0131 10.3779 17.6714 -76.1685 6.9206
lowerback 9.83036 2.52136 -11.2076
upperback 3.20701 2.11257 -0.99249
thorax -2.50144 1.00215 4.99796
lowerneck 0.422297 10.7297 1.17682
upperneck -15.3955 13.4711 -8.68728
head -3.98443 7.02484 -3.24509
rclavicle 3.8763e-014 2.38542e-015
rhumerus -55.7289 -44.483 -39.2872
rradius 80.4497
rwrist -38.5192
rhand -12.0616 -25.5413
rfingers 7.12502
rthumb 13.9977 -55.05
lclavicle 3.8763e-014 2.38542e-015
lhumerus -24.038 -52.1803 111.45
lradius 99.3419
lwrist -7.95974
lhand -54.6841 -35.1945
lfingers 7.12502
lthumb -27.0779 -7.11621
rfemur -10.8952 10.6112 -12.536
rtibia 6.68619
rfoot -4.37965 -39.3175
rtoes 20.5549
lfemur -46.1691 2.4986 -9.97285
ltibia 30.42
lfoot -11.0092 12.779
ltoes -68.6026
214
root 10.9132 16.0224 10.356 18.0408 -76.0779 6.49197
lowerback 9.75053 2.71004 -11.1398
upperback 3.15247 2.37182 -1.10024
thorax -2.55265 1.1351 4.81258
lowerneck 0.534708 11.3184 1.3843
upperneck -15.3866 14.2347 -9.20666
head -3.90661 7.42708 -3.44123
rclavicle -1.8487e-014 5.68524e-014
rhumerus -56.3224 -44.7678 -39.2702
rradius 80.5999
rwrist -38.2581
rhand -11.9083 -25.3971
rfingers 7.12502
rthumb 14.1454 -54.8956
lclavicle -1.8487e-014 5.68524e-014
lhumerus -24.2032 -52.5256 111.776
lradius 99.3014
lwrist -7.84025
lhand -54.5348 -35.0698
lfingers 7.12502
lthumb -26.9351 -6.96941
rfemur -10.8371 10.5626 -12.2862
rtibia 6.69775
rfoot -4.59935 -39.3102
rtoes 20.7463
lfemur -45.9899 2.54655 -9.76892
ltibia 30.1387
lfoot -10.8482 12.7129
ltoes -68.6243
215
root 10.9137 16.0301 10.3381 17.9114 -75.9569 6.52838
lowerback 9.72148 2.81771 -11.1924
upperback 3.10102 2.50482 -1.21288
thorax -2.61034 1.20539 4.70454
lowerneck 0.328413 11.8856 1.58392
upperneck -14.98 15.0112 -9.52888
head -3.66724 7.8157 -3.53371
rclavicle -4.05521e-014 1.27222e-014
rhumerus -56.6355 -44.9272 -39.3834
rradius 80.7132
rwrist -38.0533
rhand -11.739 -25.2999
rfingers 7.12502
rthumb 14.3085 -54.7868
lclavicle -4.05521e-014 1.27222e-014
lhumerus -24.3104 -52.6927 112.005
lradius 99.2533
lwrist -7.68173
lhand -54.3174 -35.0241
lfingers 7.12502
lthumb -26.7271 -6.89176
rfemur -10.6833 10.3651 -12.1717
rtibia 6.66418
rfoot -4.61836 -39.3046
rtoes 20.9284
lfemur -45.754 2.38056 -9.65762
ltibia 29.8204
lfoot -10.7026 12.7165
ltoes -68.6714
216
root 10.916 16.0381 10.3256 17.9852 -75.7999 6.3175
lowerback 9.73753 2.88868 -11.175
upperback 3.07429 2.59092 -1.32475
thorax -2.65626 1.25052 4.56372
lowerneck -0.124473 12.3064 1.68438
upperneck -14.1638 15.665 -9.34809
head -3.69653 8.08801 -3.79829
rclavicle 3.53837e-014 7.15625e-015
rhumerus -56.8415 -44.9622 -39.5913
rradius 80.9011
rwrist -38.2126
rhand -11.7034 -25.3375
rfingers 7.12502
rthumb 14.3428 -54.822
lclavicle 3.53837e-014 7.15625e-015
lhumerus -24.3653 -52.8129 112.124
lradius 99.2202
lwrist -7.57117
lhand -54.2379 -34.7991
lfingers 7.12502
lthumb -26.651 -6.65517
rfemur -10.4834 10.2148 -11.9862
rtibia 6.62309
rfoot -4.65236 -39.3314
rtoes 21.4773
lfemur -45.4551 1.9479 -9.38462
ltibia 29.4548
lfoot -10.6455 12.9904
ltoes -68.6924
